<svg xmlns="http://www.w3.org/2000/svg" xmlns:xlink="http://www.w3.org/1999/xlink" width="1080" zoomAndPan="magnify" viewBox="0 0 810 1012.49997" height="1350" preserveAspectRatio="xMidYMid meet" version="1.0"><defs><clipPath id="f89dfbbeba"><path d="M 0.199219 73.058594 L 809 73.058594 L 809 938.882812 L 0.199219 938.882812 Z M 0.199219 73.058594 " clip-rule="nonzero"/></clipPath></defs><g clip-path="url(#f89dfbbeba)"><path fill="#e1e6db" d="M 808.316406 433.699219 C 807.539062 444.597656 804.984375 455.300781 801.382812 465.59375 C 794.183594 486.171875 782.699219 505 770.609375 523.027344 C 758.058594 541.734375 744.773438 559.980469 731.539062 578.203125 C 705 614.765625 678.3125 651.449219 656.953125 691.347656 C 636.445312 729.636719 621.046875 771.234375 616.15625 814.5625 C 613.773438 835.703125 614.113281 857.085938 617.617188 878.078125 C 620.535156 895.570312 626.230469 913.0625 636.59375 927.632812 C 639.464844 931.671875 642.699219 935.441406 646.273438 938.800781 C 639.949219 937.195312 633.601562 935.589844 627.273438 933.984375 C 585.3125 923.132812 553.320312 888.125 546.679688 845.214844 C 543.371094 823.832031 546.898438 801.523438 556.53125 782.160156 C 569.230469 756.617188 587.550781 733.96875 606.183594 712.558594 C 643.015625 670.179688 684.589844 629.652344 704.878906 576.0625 C 709.742188 563.214844 713.101562 549.859375 714.632812 536.214844 C 715.996094 524.027344 716.628906 510.425781 705.292969 502.738281 C 695.660156 496.195312 682.984375 496.488281 672.085938 498.945312 C 659.121094 501.863281 647.175781 508.382812 636.519531 516.144531 C 613.871094 532.660156 594.507812 553.996094 576.503906 575.304688 C 558.136719 597.054688 541.109375 619.921875 523.789062 642.523438 C 506.394531 665.21875 488.613281 687.722656 468.882812 708.449219 C 449.980469 728.324219 429.207031 746.421875 406.921875 762.40625 C 362.769531 794.078125 312.945312 817.75 260.5 831.90625 C 234.324219 838.960938 207.515625 843.679688 180.488281 845.796875 C 155.917969 847.71875 128.816406 847.550781 106.703125 835.214844 C 84.515625 822.832031 74.277344 799.332031 75.734375 774.542969 C 77.269531 748.101562 90.746094 724.964844 109.113281 706.550781 C 129.011719 686.578125 153.363281 671.859375 176.863281 656.582031 C 202.988281 639.601562 228.898438 622.304688 254.539062 604.621094 C 305.820312 569.226562 356.03125 532.222656 404.5625 493.105469 C 448.011719 458.074219 492.285156 422.070312 526.585938 377.675781 C 542.472656 357.09375 555.996094 334.617188 564.828125 310.09375 C 572.34375 289.222656 578.402344 264.847656 572.6875 242.804688 C 570.398438 233.976562 565.996094 225.316406 558.453125 219.890625 C 549.671875 213.589844 537.945312 213.613281 528.191406 217.53125 C 521.769531 220.109375 515.785156 224.097656 509.945312 227.746094 C 503.863281 231.542969 497.90625 235.558594 492.042969 239.714844 C 480.730469 247.792969 469.878906 256.453125 459.394531 265.574219 C 415.824219 303.5 379.457031 348.605469 340.851562 391.371094 C 302.144531 434.257812 260.132812 476.296875 208.339844 503.175781 C 159.25 528.671875 100.230469 540.785156 46.492188 523.246094 C 33.675781 519.0625 20.804688 513.128906 11.972656 502.59375 C 3.507812 492.496094 0.371094 479.042969 0.296875 466.128906 C 0.152344 440.121094 11 414.359375 24.066406 392.367188 C 50.996094 347.023438 91.914062 312.285156 128.425781 274.992188 C 149.398438 253.582031 169.054688 230.910156 187.324219 207.167969 C 205.46875 183.59375 223.011719 159.046875 236.609375 132.53125 C 246.21875 113.800781 253.613281 93.902344 256.824219 73.175781 C 265.753906 110.054688 261.957031 148.492188 246.996094 183.835938 C 231.378906 220.546875 207.78125 253.363281 194.816406 291.167969 C 189.535156 306.566406 180.707031 330.214844 197.492188 341.71875 C 205.445312 347.191406 214.472656 345.394531 221.914062 340.015625 C 230.601562 333.765625 238.386719 325.859375 246 318.390625 C 277.917969 287.128906 305.285156 251.6875 335.523438 218.894531 C 387.070312 162.988281 457.8125 107.960938 538.773438 125.113281 C 573.125 132.386719 604.601562 152.601562 619.5625 185.199219 C 636.324219 221.640625 629.925781 265.261719 613.480469 300.605469 C 595.675781 338.875 565.4375 369.746094 535.320312 398.570312 C 504.984375 427.570312 474.257812 456.007812 447.742188 488.679688 C 422.222656 520.085938 398.96875 555.578125 386.535156 594.402344 C 382.328125 607.515625 380.113281 623.9375 386.949219 636.585938 C 395.171875 651.789062 415.363281 653.492188 429.179688 645.199219 C 438.644531 639.53125 447.328125 631.890625 455.988281 625.054688 C 465.015625 617.925781 473.871094 610.605469 482.652344 603.160156 C 499.777344 588.613281 516.539062 573.652344 533.300781 558.691406 C 566.628906 528.988281 600.078125 499.238281 636.691406 473.570312 C 671.550781 449.121094 709.28125 428.105469 750.152344 415.574219 C 760.050781 412.535156 770.148438 409.835938 780.339844 408.058594 C 786.980469 406.890625 794.960938 406.1875 801.066406 409.566406 C 809.652344 414.285156 808.925781 425.28125 808.316406 433.699219 Z M 808.316406 433.699219 " fill-opacity="1" fill-rule="nonzero"/></g></svg>